<?xml version="1.0" standalone="no"?><!DOCTYPE svg PUBLIC "-//W3C//DTD SVG 1.1//EN" "http://www.w3.org/Graphics/SVG/1.1/DTD/svg11.dtd"><svg class="icon" width="14px" height="14.00px" viewBox="0 0 1024 1024" version="1.1" xmlns="http://www.w3.org/2000/svg"><path fill="#ff1286" d="M394.46 268.46h-11.38c-17.67 0-32-14.33-32-32V127c0-17.67 14.33-32 32-32h11.38c17.67 0 32 14.33 32 32v109.46c0 17.67-14.33 32-32 32zM341.49 537.41h-79.63c-17.67 0-32-14.33-32-32v-11.64c0-17.67 14.33-32 32-32h79.63c17.67 0 32 14.33 32 32v11.64c0 17.68-14.32 32-32 32zM551.54 537.41h-79.63c-17.67 0-32-14.33-32-32v-11.64c0-17.67 14.33-32 32-32h79.63c17.67 0 32 14.33 32 32v11.64c0 17.68-14.33 32-32 32zM761.59 537.41h-79.63c-17.67 0-32-14.33-32-32v-11.64c0-17.67 14.33-32 32-32h79.63c17.67 0 32 14.33 32 32v11.64c0 17.68-14.33 32-32 32zM341.49 676.28h-79.63c-17.67 0-32-14.33-32-32v-11.64c0-17.67 14.33-32 32-32h79.63c17.67 0 32 14.33 32 32v11.64c0 17.67-14.32 32-32 32zM551.54 676.28h-79.63c-17.67 0-32-14.33-32-32v-11.64c0-17.67 14.33-32 32-32h79.63c17.67 0 32 14.33 32 32v11.64c0 17.67-14.33 32-32 32zM761.59 676.28h-79.63c-17.67 0-32-14.33-32-32v-11.64c0-17.67 14.33-32 32-32h79.63c17.67 0 32 14.33 32 32v11.64c0 17.67-14.33 32-32 32zM341.49 815.15h-79.63c-17.67 0-32-14.33-32-32v-11.64c0-17.67 14.33-32 32-32h79.63c17.67 0 32 14.33 32 32v11.64c0 17.67-14.32 32-32 32zM551.54 815.15h-79.63c-17.67 0-32-14.33-32-32v-11.64c0-17.67 14.33-32 32-32h79.63c17.67 0 32 14.33 32 32v11.64c0 17.67-14.33 32-32 32zM761.59 815.15h-79.63c-17.67 0-32-14.33-32-32v-11.64c0-17.67 14.33-32 32-32h79.63c17.67 0 32 14.33 32 32v11.64c0 17.67-14.33 32-32 32zM640.92 268.46h-11.38c-17.67 0-32-14.33-32-32V127c0-17.67 14.33-32 32-32h11.38c17.67 0 32 14.33 32 32v109.46c0 17.67-14.33 32-32 32z"  /><path fill="#ff1286" d="M602.62 219.73H496.45c-17.67 0-32-14.33-32-32s14.33-32 32-32h106.17c17.67 0 32 14.33 32 32s-14.33 32-32 32z"  /><path fill="#ff1286" d="M876 916.11H148c-17.67 0-32-14.33-32-32V180.47c0-17.67 14.33-32 32-32h240.77c17.67 0 32 14.33 32 32s-14.33 32-32 32H180v639.64h664V212.47H743.52c-17.67 0-32-14.33-32-32s14.33-32 32-32H876c17.67 0 32 14.33 32 32v703.64c0 17.67-14.33 32-32 32z"  /><path fill="#ff1286" d="M876 390H148c-17.67 0-32-14.33-32-32v-2.7c0-17.67 14.33-32 32-32h728c17.67 0 32 14.33 32 32v2.7c0 17.67-14.33 32-32 32z"  /></svg>