<?xml version="1.0" standalone="no"?><!DOCTYPE svg PUBLIC "-//W3C//DTD SVG 1.1//EN" "http://www.w3.org/Graphics/SVG/1.1/DTD/svg11.dtd"><svg class="icon" width="24px" height="24.00px" viewBox="0 0 1024 1024" version="1.1" xmlns="http://www.w3.org/2000/svg"><path fill="#cdcdcd" d="M605.184 660.138667c-8.704 0-17.408-3.413333-24.064-10.069334l-221.866667-221.866666c-13.312-13.312-13.312-34.986667 0-48.298667s34.986667-13.312 48.298667 0l221.866667 221.866667c13.312 13.312 13.312 34.986667 0 48.298666-6.826667 6.656-15.530667 10.069333-24.234667 10.069334zM383.317333 660.138667a34.2016 34.2016 0 0 1-24.064-58.368l221.866667-221.866667c13.312-13.312 34.986667-13.312 48.298667 0s13.312 34.986667 0 48.298667l-221.866667 221.866666c-6.826667 6.656-15.530667 10.069333-24.234667 10.069334zM494.933333 955.733333C250.197333 955.733333 51.2 756.736 51.2 512S250.197333 68.266667 494.933333 68.266667s443.733333 198.997333 443.733334 443.733333-198.997333 443.733333-443.733334 443.733333z m0-819.2C287.914667 136.533333 119.466667 304.981333 119.466667 512s168.448 375.466667 375.466666 375.466667 375.466667-168.448 375.466667-375.466667S701.952 136.533333 494.933333 136.533333z" /></svg>