<?xml version="1.0" standalone="no"?><!DOCTYPE svg PUBLIC "-//W3C//DTD SVG 1.1//EN" "http://www.w3.org/Graphics/SVG/1.1/DTD/svg11.dtd"><svg t="1601106941821" class="icon" viewBox="0 0 2400 1024" version="1.1" xmlns="http://www.w3.org/2000/svg" p-id="3232" width="187.5" height="80" xmlns:xlink="http://www.w3.org/1999/xlink"><defs><style type="text/css"></style></defs><path d="M2368 1024H32c-17.6 0-32-14.4-32-32V32C0 14.4 14.4 0 32 0h2336c17.6 0 32 14.4 32 32v960c0 17.6-14.4 32-32 32z m-193.6-129.6l59.2 54.4c4.8 4.8 12.8 3.2 16-1.6l92.8-102.4c4.8-4.8 3.2-12.8-1.6-16-4.8-4.8-12.8-3.2-16 1.6l-84.8 94.4-51.2-46.4c-4.8-4.8-12.8-3.2-16 1.6-3.2 1.6-3.2 9.6 1.6 14.4zM2384 33.6c0-9.6-6.4-16-16-16H32c-9.6 0-16 6.4-16 16V992c0 9.6 6.4 16 16 16h1852.8L2384 656v334.4V33.6z" fill="#d81e06" p-id="3233"></path><path d="M732.8 566.4h-118.4v40h-24V348.8h144v-64h24v64h145.6v217.6h-145.6v62.4c0 22.4 11.2 33.6 32 33.6H896c12.8 0 22.4-3.2 27.2-8 4.8-4.8 9.6-24 11.2-57.6l24 8c-3.2 38.4-8 60.8-16 68.8s-22.4 11.2-41.6 11.2h-115.2c-33.6 0-49.6-17.6-49.6-52.8v-65.6z m0-193.6h-118.4v73.6h118.4v-73.6z m-120 94.4v75.2h118.4v-75.2h-118.4z m265.6-22.4v-73.6h-121.6v73.6h121.6z m-121.6 97.6h121.6v-75.2h-121.6v75.2zM1004.8 480h192v-68.8c40-22.4 78.4-49.6 115.2-83.2H1052.8V304h294.4v24c-35.2 33.6-76.8 65.6-124.8 96V480h172.8v24H1220.8v145.6c0 27.2-12.8 40-38.4 40h-75.2l-6.4-24h72c16 0 24-8 24-25.6v-137.6h-192V480zM1449.6 304h396.8v20.8h-137.6V368h99.2v91.2H1488V368h100.8v-43.2h-139.2V304z m136 313.6c-32 27.2-70.4 49.6-115.2 70.4l-14.4-19.2c44.8-19.2 81.6-40 113.6-65.6l16 14.4z m-128-57.6H1840v20.8h-176V656c0 24-12.8 35.2-38.4 35.2h-38.4l-4.8-22.4c16 1.6 28.8 1.6 35.2 1.6 16 0 24-6.4 24-20.8v-68.8H1457.6V560z m44.8-60.8h296v20.8H1502.4v-20.8z m86.4-60.8v-49.6h-76.8v49.6h76.8z m97.6-68.8v-43.2h-75.2v43.2h75.2z m0 68.8v-49.6h-75.2v49.6h75.2z m99.2 0v-49.6h-76.8v49.6h76.8z m-49.6 163.2c43.2 22.4 78.4 44.8 107.2 68.8l-17.6 16c-25.6-22.4-62.4-44.8-107.2-70.4l17.6-14.4z" fill="#d81e06" p-id="3234"></path></svg>