<?xml version="1.0" standalone="no"?><!DOCTYPE svg PUBLIC "-//W3C//DTD SVG 1.1//EN" "http://www.w3.org/Graphics/SVG/1.1/DTD/svg11.dtd"><svg t="1601120850852" class="icon" viewBox="0 0 2826 1024" version="1.1" xmlns="http://www.w3.org/2000/svg" p-id="3733" xmlns:xlink="http://www.w3.org/1999/xlink" width="220.78125" height="80"><defs><style type="text/css"></style></defs><path d="M1180.8768 153.6h193.67936V92.5696c0-11.0592 8.94976-19.98848 19.968-19.98848h72.35584c11.03872 0 19.98848 8.92928 19.98848 19.968V153.6h193.65888c5.14048 0 9.29792 4.15744 9.29792 9.27744v21.0944c0 5.14048-4.15744 9.29792-9.29792 9.29792H1488.2816v61.60384h173.40416a537.96864 537.96864 0 0 1-179.58912 233.22624 619.45856 619.45856 0 0 0 208.30208 90.0096v45.30176a830.2592 830.2592 0 0 1-258.41664-100.1472 760.0128 760.0128 0 0 1-253.3376 100.43392v-41.92256c0-2.80576 122.73664-37.13024 206.04928-90.86976a573.50144 573.50144 0 0 1-150.3232-155.8528h90.112a569.01632 569.01632 0 0 0 107.52 115.07712 639.46752 639.46752 0 0 0 115.4048-156.42624H1215.488a9.29792 9.29792 0 0 1-9.29792-9.29792v-19.968a9.27744 9.27744 0 0 1 9.29792-9.27744h158.76096V193.26976H1180.8768a9.29792 9.29792 0 0 1-9.29792-9.27744v-21.0944a9.23648 9.23648 0 0 1 9.29792-9.29792z m696.70912 84.39808v371.9168a7.8848 7.8848 0 0 1-7.8848 7.8848h-72.62208a7.8848 7.8848 0 0 1-7.8848-7.90528V324.9152h-86.4256L1818.2144 79.89248h95.70304l-75.1616 158.94528h38.85056v-0.83968z m42.78272-57.9584h217.86624v-77.6192c0-7.168 5.81632-12.96384 12.96384-12.96384h62.7712c7.168 0 12.94336 5.79584 12.94336 12.94336v77.63968h35.20512c3.56352 0 6.47168 2.90816 6.47168 6.47168v22.24128a6.47168 6.47168 0 0 1-6.47168 6.4512h-35.20512v359.54688c0 36.57728-45.32224 32.62464-45.32224 32.62464l-107.52 2.51904v-36.00384c18.41152 2.6624 37.19168 0.63488 54.59968-5.89824 8.97024-7.18848 12.63616-19.10784 9.29792-30.1056V215.20384H1920.65536a6.47168 6.47168 0 0 1-6.47168-6.4512V186.51136c0-3.56352 2.88768-6.47168 6.47168-6.47168h-0.28672z m28.16 93.98272a3.93216 3.93216 0 0 0-3.66592 5.61152l60.80512 166.54336a9.0112 9.0112 0 0 0 7.86432 5.632h77.7216a3.93216 3.93216 0 0 0 3.64544-5.632l-60.80512-166.54336a9.0112 9.0112 0 0 0-7.8848-5.61152h-77.68064z m388.17792-142.09024h187.47392V82.14528a6.4512 6.4512 0 0 1 7.04512-6.18496h89.78432a6.43072 6.43072 0 0 1 7.04512 6.18496v49.78688h182.96832c3.584 0 6.47168 2.90816 6.47168 6.47168v77.37344a6.47168 6.47168 0 0 1-6.47168 6.47168h-86.13888a6.47168 6.47168 0 0 1-6.47168-6.47168V165.41696h-289.93536v50.36032a6.47168 6.47168 0 0 1-6.47168 6.47168h-85.2992a6.47168 6.47168 0 0 1-6.47168-6.47168V138.40384c0-3.56352 2.90816-6.47168 6.47168-6.47168z m291.34848 156.42624v81.01888h187.1872c3.584 0 6.47168 2.88768 6.47168 6.47168v22.2208a6.47168 6.47168 0 0 1-6.47168 6.47168h-187.1872v162.87744h97.6896l-25.33376-75.3664a3.97312 3.97312 0 0 1 0.24576-3.85024c0.73728-1.14688 2.048-1.8432 3.39968-1.80224h77.70112c3.4816 0.2048 6.5536 2.39616 7.8848 5.632l32.3584 95.92832a4.5056 4.5056 0 0 1 0 4.21888v2.82624a6.47168 6.47168 0 0 1-6.47168 6.47168h-476.01664a6.47168 6.47168 0 0 1-6.47168-6.47168v-21.0944c0-3.584 2.90816-6.49216 6.47168-6.49216h186.368v-162.87744h-186.368a6.47168 6.47168 0 0 1-6.47168-6.47168v-22.2208c0-3.584 2.90816-6.47168 6.47168-6.47168h186.368V288.3584h-186.368a6.47168 6.47168 0 0 1-6.47168-6.47168v-21.93408a6.47168 6.47168 0 0 1 6.47168-6.7584h475.7504c3.56352 0 6.4512 2.88768 6.4512 6.47168v21.64736a6.47168 6.47168 0 0 1-6.47168 6.47168h-187.1872v0.57344zM1434.78784 913.73568c0.86016 1.98656 1.4336 4.05504 1.69984 6.20544a4.21888 4.21888 0 0 1 0 3.64544 9.33888 9.33888 0 0 1-5.07904 1.69984h-25.9072a5.95968 5.95968 0 0 1-2.51904-1.69984l-1.69984-2.51904-20.54144-56.27904H1281.6384l-19.70176 56.27904a9.5232 9.5232 0 0 1-1.4336 2.80576 7.33184 7.33184 0 0 1-2.78528 1.96608H1235.7632a8.76544 8.76544 0 0 1-4.79232-1.67936 4.3008 4.3008 0 0 1 0-3.6864 20.45952 20.45952 0 0 1 1.69984-6.16448l80.50688-212.97152a7.86432 7.86432 0 0 1 5.632-5.05856h30.96576c1.37216 0.34816 2.62144 1.024 3.66592 1.96608a8.64256 8.64256 0 0 1 1.96608 3.3792l80.4864 212.97152-1.10592-0.86016z m-103.30112-187.92448l-41.39008 114.21696h84.45952l-41.94304-114.21696h-1.1264z m377.46688 185.67168c0.16384 1.98656 0.16384 3.95264 0 5.91872a13.23008 13.23008 0 0 1 0 4.21888 6.9632 6.9632 0 0 1-1.96608 2.53952 4.99712 4.99712 0 0 1-2.80576 0h-108.09344a13.53728 13.53728 0 0 1-8.17152-2.82624 11.28448 11.28448 0 0 1-3.93216-9.56416V699.65824a4.28032 4.28032 0 0 1 0-2.53952 4.5056 4.5056 0 0 1 2.51904-1.67936h25.33376c1.024 0.26624 1.90464 0.86016 2.53952 1.67936a4.07552 4.07552 0 0 1 0 2.53952v198.32832h86.13888a4.99712 4.99712 0 0 1 2.82624 0 6.144 6.144 0 0 1 1.96608 2.2528 11.55072 11.55072 0 0 1 0 3.93216c0.14336 1.96608 0.14336 3.95264 0 5.91872l3.64544 1.39264z m176.78336 8.72448a4.23936 4.23936 0 0 1 0 2.53952 4.7104 4.7104 0 0 1-2.51904 1.67936h-25.33376a4.48512 4.48512 0 0 1-2.53952-1.67936 4.23936 4.23936 0 0 1 0-2.53952v-220.5696a3.95264 3.95264 0 0 1 0-2.51904 5.67296 5.67296 0 0 1 2.80576-1.67936h25.06752c1.00352 0.26624 1.88416 0.86016 2.51904 1.67936a4.23936 4.23936 0 0 1 0 2.53952v220.5696z m320.9216-157.53216a77.45536 77.45536 0 0 1-5.91872 30.94528 65.9456 65.9456 0 0 1-16.896 23.63392 77.824 77.824 0 0 1-28.13952 15.17568 123.0848 123.0848 0 0 1-38.2976 5.34528h-28.13952v82.16576a4.23936 4.23936 0 0 1 0 2.51904 5.65248 5.65248 0 0 1-2.53952 1.69984h-24.7808a4.5056 4.5056 0 0 1-2.51904-1.69984 4.28032 4.28032 0 0 1 0-2.51904v-211.5584a12.16512 12.16512 0 0 1 3.93216-10.1376 14.1312 14.1312 0 0 1 8.74496-3.09248h66.43712c5.65248 0.53248 11.30496 1.37216 16.87552 2.51904 7.00416 1.55648 13.7216 4.11648 19.98848 7.59808 6.47168 3.56352 12.288 8.23296 17.18272 13.80352 4.7104 5.55008 8.31488 11.93984 10.69056 18.8416 2.6624 7.59808 3.97312 15.58528 3.93216 23.63392l-0.55296 1.1264z m-33.50528 2.53952a45.38368 45.38368 0 0 0-5.632-23.3472 36.864 36.864 0 0 0-13.5168-14.09024 45.60896 45.60896 0 0 0-16.5888-5.89824c-5.632-0.4096-11.28448-0.4096-16.896 0h-28.16v91.99616h28.16a69.8368 69.8368 0 0 0 23.92064-3.3792c5.98016-2.12992 11.44832-5.46816 16.03584-9.8304 4.38272-4.28032 7.76192-9.46176 9.87136-15.21664 2.27328-6.10304 3.42016-12.5952 3.35872-19.10784l-0.55296-1.1264z m343.71584 148.80768c0.83968 1.96608 1.41312 4.05504 1.67936 6.18496a4.21888 4.21888 0 0 1 0 3.66592 9.29792 9.29792 0 0 1-5.05856 1.67936h-23.36768a5.9392 5.9392 0 0 1-2.53952-1.67936l-1.67936-2.53952-20.54144-56.25856h-99.9424l-19.70176 56.25856a8.94976 8.94976 0 0 1-1.4336 2.82624 7.18848 7.18848 0 0 1-2.80576 1.9456h-22.2208a8.6016 8.6016 0 0 1-4.79232-1.67936 4.21888 4.21888 0 0 1 0-3.64544c0.24576-2.1504 0.8192-4.21888 1.69984-6.18496l80.4864-212.992a9.05216 9.05216 0 0 1 1.98656-3.072 7.9872 7.9872 0 0 1 3.66592-1.96608h27.8528a8.06912 8.06912 0 0 1 3.6864 1.96608 8.8064 8.8064 0 0 1 1.9456 3.3792l80.50688 212.95104 0.57344-0.83968z m-103.3216-187.92448l-41.3696 114.21696h84.43904l-41.94304-114.21696h-1.1264z m301.7728 109.71136v84.39808a4.23936 4.23936 0 0 1 0 2.53952 4.7104 4.7104 0 0 1-2.53952 1.67936h-25.33376a5.05856 5.05856 0 0 1-2.51904-1.67936 4.23936 4.23936 0 0 1 0-2.53952v-84.3776l-67.85024-129.4336a28.48768 28.48768 0 0 1-2.53952-6.47168 3.3792 3.3792 0 0 1 0-3.35872 9.05216 9.05216 0 0 1 5.07904-1.69984h24.18688c1.18784 0.26624 2.2528 0.86016 3.11296 1.69984 0.77824 0.8192 1.4336 1.78176 1.96608 2.80576l33.21856 65.8432c3.09248 6.18496 6.18496 12.92288 9.29792 19.68128l9.56416 20.82816c2.80576-6.7584 5.632-13.5168 8.72448-20.2752l9.29792-19.68128 33.4848-66.39616a8.68352 8.68352 0 0 1 1.69984-3.09248 5.9392 5.9392 0 0 1 2.80576-1.96608h23.3472a10.4448 10.4448 0 0 1 5.36576 1.67936c0.6144 1.024 0.6144 2.33472 0 3.3792a24.2688 24.2688 0 0 1-2.51904 6.18496l-67.85024 130.2528z" fill="#1296db" p-id="3734"></path><path d="M197.03808 0h617.0624c108.4416 0.9216 196.11648 88.55552 197.0176 196.93568v494.83776a35092.6848 35092.6848 0 0 0-340.86912-115.89632 941.8752 941.8752 0 0 0 87.81824-206.78656h-194.51904v-70.32832h239.57504v-31.78496H563.54816V150.50752H455.4752v116.46976H215.90016v31.78496H455.4752v70.61504H247.15264v37.6832h388.46464a285.42976 285.42976 0 0 1-56.29952 142.6432c-197.03808-53.16608-347.36128-86.07744-446.73024-5.05856C33.21856 625.664 84.72576 884.49024 369.0496 827.0848a422.23616 422.23616 0 0 0 246.5792-168.79616l396.0832 171.6224a198.69696 198.69696 0 0 1-197.05856 182.86592H197.0176C88.59648 1011.85536 0.9216 924.22144 0 815.84128V196.93568C0.9216 88.55552 88.59648 0.9216 197.03808 0z m332.1856 618.9056c-185.79456-100.1472-292.20864-90.29632-347.9552-56.25856-61.35808 36.00384-88.6784 119.84896-23.63392 174.40768a157.63456 157.63456 0 0 0 66.99008 28.16c178.74944 39.09632 304.31232-146.30912 304.31232-146.30912h0.28672z" fill="#1296db" p-id="3735"></path></svg>